# xmcd
#
# Track frame offsets:
# 150
# 15573
# 26733
# 41539
# 53195
# 67368
# 78859
# 92492
# 102006
# 114649
# 129459
# 144430
# 151676
# 164121
# 172021
#
# Disc length: 2458 seconds
#
#
# Revision: 0
# Processed by: cddbd v1.5.1PL0 Copyright (c) Steve Scherf et al.
# Submitted via: FreeRIP 2.91 
#
DISCID=c309980f
DTITLE=Johnny Cash - Cash The Universal Masters Collection
DYEAR=2004
DGENRE=Country
TTITLE0=The Night Hank Williams Come To Town
TTITLE1=Cry Cry Cry
TTITLE2=Long Black Veil
TTITLE3=I Walk The Line
TTITLE4=Tennesse Flat Top Box
TTITLE5=Get Rhythm
TTITLE6=I Still Miss Someone
TTITLE7=Blue Train
TTITLE8=Foolsom Prince Blues
TTITLE9=Home Of The Blues
TTITLE10=Cats In The Cradle
TTITLE11=Wanted Man
TTITLE12=Ring Of Fire
TTITLE13=Guess Things Happen That Way
TTITLE14=Sixteen Tons
EXTD=
EXTT0=
EXTT1=
EXTT2=
EXTT3=
EXTT4=
EXTT5=
EXTT6=
EXTT7=
EXTT8=
EXTT9=
EXTT10=
EXTT11=
EXTT12=
EXTT13=
EXTT14=
PLAYORDER=
